<?xml version="1.0" encoding="UTF-8"?>
<svg xmlns="http://www.w3.org/2000/svg" xmlns:xlink="http://www.w3.org/1999/xlink" id="Layer_2" viewBox="0 0 2580.979 644.85284">
  <defs>
    <style>.cls-1{fill:url(#linear-gradient);}.cls-2{fill:#005082;}.cls-3{fill:#001432;}.cls-4{fill:url(#linear-gradient-2);}</style>
    <linearGradient id="linear-gradient" x1="-6.62281" y1="155.78525" x2="157.89941" y2="440.7461" gradientUnits="userSpaceOnUse">
      <stop offset="0" stop-color="#001432"></stop>
      <stop offset=".21865" stop-color="#001736"></stop>
      <stop offset=".44522" stop-color="#002042"></stop>
      <stop offset=".67541" stop-color="#002f57"></stop>
      <stop offset=".90677" stop-color="#004574"></stop>
      <stop offset="1" stop-color="#005082"></stop>
    </linearGradient>
    <linearGradient id="linear-gradient-2" x1="422.75979" y1="144.43269" x2="422.75979" y2="452.09761" xlink:href="#linear-gradient"></linearGradient>
  </defs>
  <g id="Layer_1-2">
    <g>
      <g>
        <path class="cls-3" d="M1056.22218,172.73315c3.97215-15.39147,19.86-23.83215,35.74785-23.83215,19.85963,0,36.74061,13.40521,36.74061,34.25834,0,4.46815-1.48951,9.92981-2.97902,14.39872l-83.41103,262.14918c-6.45442,20.35601-22.83902,36.74098-51.13933,36.74098s-44.18778-16.38498-51.13895-36.74098l-60.07601-174.76637-57.09662,174.76637c-6.95117,20.35601-22.83902,36.74098-51.6357,36.74098s-44.68454-16.38498-51.13895-36.74098l-84.90092-263.14268c-1.48951-3.97178-2.48227-8.43993-2.48227-12.41245,0-19.36325,15.88785-35.2511,37.23699-35.2511,18.37049,0,30.28619,10.42619,34.75472,25.81767l67.0268,229.87784,70.50258-228.88434c4.46815-14.89509,16.38423-26.81117,38.7265-26.81117,22.83865,0,32.76883,11.91608,37.73374,27.30755l72.98484,228.38796,64.54416-231.86336Z"></path>
        <path class="cls-3" d="M1337.74433,455.23908c0,13.40521-9.43344,22.83865-28.30031,30.28582-20.35638,8.44068-42.69865,10.92332-64.54454,10.92332-38.23012,0-69.01269-11.91608-89.86545-33.26559-21.34951-21.84589-33.26521-52.13171-33.26521-87.87994,0-34.2576,12.41245-63.55141,32.27208-83.90741,19.86-19.85963,48.15993-31.7757,83.90779-31.7757,36.74061,0,63.05503,11.91608,80.92877,29.78944,21.84589,22.34227,28.30031,49.15344,28.30031,71.49571,0,23.33503-11.91608,36.74024-32.27246,36.74024h-124.12379c5.95804,30.28657,26.31442,46.6708,58.5865,46.6708,34.75472,0,47.66356-15.39147,64.04779-15.39147,13.90196,0,24.32853,11.91608,24.32853,26.31479Zm-54.11797-100.78877c-1.98626-23.83215-18.37049-43.1954-45.18129-43.1954-27.30718,0-43.69141,16.88136-48.15993,43.1954h93.34122Z"></path>
        <path class="cls-3" d="M1461.37137,267.06676c15.3911-4.96453,31.27895-7.44717,48.15993-7.44717,31.27932,0,59.57926,11.4197,79.43926,32.76846,18.37012,19.86038,29.78982,48.65706,29.78982,85.89367,0,30.78295-9.43344,57.59337-27.80393,78.4465-22.83865,25.32129-60.07601,39.72-110.71858,39.72-24.82453,0-41.70552-1.48988-55.11073-4.4689-19.86-4.46815-29.29344-18.37049-29.29344-36.74024V181.17308c0-17.87337,14.39834-31.7757,32.76883-31.7757,17.87374,0,32.76883,13.90234,32.76883,31.7757v85.89367Zm0,174.26999c4.46815,.49638,17.87374,.9935,24.82453,.9935,20.35638,0,40.21638-6.45516,52.62846-22.34227,7.94393-10.42694,12.90883-23.83215,12.90883-41.70626,0-20.85238-6.45442-35.74748-15.88785-46.17367-10.92257-11.4197-25.81767-16.88061-40.21601-16.88061-12.41245,0-23.83178,2.48189-34.25797,6.45442v119.65489Z"></path>
        <path class="cls-2" d="M1851.12012,422.96625h-122.63391l-17.37773,49.64982c-4.96453,14.89509-15.88785,23.83215-35.2511,23.83215-21.34951,0-34.25834-15.39147-34.25834-32.76921,0-4.46815,2.48264-11.41895,3.97252-15.88785l95.32711-262.14918c7.44717-20.35675,20.35601-37.23736,50.14545-37.23736,29.29381,0,43.69178,16.88061,50.64257,37.23736l93.83797,262.14918c1.48914,3.97252,3.4754,11.4197,3.4754,15.88785,0,20.35675-15.39147,32.76921-36.24386,32.76921-17.37773,0-29.79019-8.44068-34.25834-23.83215l-17.37773-49.64982Zm-104.76055-57.59337h87.38356l-43.1954-127.10281-44.18816,127.10281Z"></path>
        <path class="cls-2" d="M2136.60283,269.05302c11.41895,6.45442,19.36325,16.38423,19.36325,29.78944,0,17.37773-11.91608,30.28657-28.30031,30.28657s-22.83865-11.91608-43.1954-11.91608c-33.76122,0-43.19465,31.27932-43.19465,62.55865v84.90092c0,17.37699-15.39147,31.7757-32.76921,31.7757-18.36974,0-32.76846-14.39872-32.76846-31.7757v-173.27723c0-17.37699,14.39872-31.7757,32.76846-31.7757,15.88785,0,28.79743,11.4197,31.7757,25.81767,13.40596-16.38423,33.26559-25.81767,56.10423-25.81767,13.90159,0,28.79668,2.97902,40.21638,9.43344Z"></path>
        <path class="cls-2" d="M2297.47359,350.97492v-3.97178c0-11.91608-1.98626-20.35675-6.95154-26.81117-5.46091-6.95079-14.89435-9.92981-26.81042-9.92981-26.31404,0-43.1954,15.39147-62.55865,15.39147-13.40521,0-23.8314-10.42619-23.8314-23.83215,0-15.39147,12.41245-24.82491,28.79668-31.27932,19.36325-7.44717,42.69827-10.92257,65.53692-10.92257,22.34227,0,52.13246,4.46815,71.49571,25.81767,12.41245,13.40521,19.85963,31.7757,19.85963,60.07601v119.15926c0,17.37699-15.39147,31.7757-32.76846,31.7757-11.4197,0-21.84589-5.46166-27.30755-13.90234-19.85963,11.4197-39.22288,13.90234-61.06877,13.90234-41.70552,0-75.46748-26.31479-75.46748-70.00582,0-58.0905,65.04129-70.50295,131.07534-75.46748Zm0,87.38281v-43.19465c-29.79019,.99276-68.51669,4.96453-68.51669,29.29306,0,15.88785,15.39147,23.33503,33.76197,23.33503,11.41895,0,23.33503-2.48264,34.75472-9.43344Z"></path>
        <path class="cls-2" d="M2426.07226,264.08774v-33.26484c0-17.87411,14.39872-32.27208,32.76921-32.27208,17.37699,0,32.76846,14.39797,32.76846,32.27208v33.26484h44.68454c13.90159,0,25.32129,11.4197,25.32129,25.81841,0,13.90159-11.4197,25.81767-25.32129,25.81767h-44.68454v93.83723c0,21.34951,7.44717,30.28657,23.33503,30.28657,17.87411,0,25.32129-13.90234,41.20914-13.90234,14.89509,0,24.82491,11.91608,24.82491,26.31479,0,14.89435-13.40521,26.81042-30.78295,34.75472-14.39797,5.95729-31.7757,9.43344-48.15993,9.43344-54.11797,0-75.96386-36.24461-75.96386-79.93638v-100.78802h-15.88785c-13.90159,0-25.32129-11.91608-25.32129-25.81767,0-14.39872,11.4197-25.81841,25.32129-25.81841h15.88785Z"></path>
      </g>
      <g>
        <path class="cls-1" d="M133.49967,452.09761c-6.89772,0-13.45492-4.04915-16.32368-10.79773L1.46895,169.1024c-3.83049-9.01069,.36929-19.42081,9.38036-23.2513,9.01032-3.83049,19.42081,.36892,23.2513,9.38036l115.70704,272.19748c3.83049,9.01069-.36929,19.42081-9.38036,23.2513-2.26248,.96173-4.61468,1.41737-6.92762,1.41737Z"></path>
        <path class="cls-4" d="M364.89805,452.09761c-2.31294,0-4.66401-.45526-6.92762-1.41737-9.01032-3.83049-13.2101-14.24061-9.37961-23.2513l115.70704-272.19748c3.82974-9.01069,14.2365-13.21309,23.2513-9.38036,9.01032,3.83049,13.2101,14.24061,9.37961,23.2513l-115.70704,272.19748c-2.86838,6.74783-9.42596,10.79773-16.32368,10.79773Z"></path>
        <g>
          <path class="cls-2" d="M364.91449,452.09761c-6.89772,0-13.4553-4.04915-16.32368-10.79773L232.8834,169.1024c-3.83049-9.01069,.36929-19.42081,9.38036-23.2513,9.01032-3.83049,19.42081,.36892,23.2513,9.38036l115.70666,272.19748c3.83049,9.01069-.36929,19.42081-9.37961,23.2513-2.26286,.96173-4.61542,1.41737-6.92762,1.41737Z"></path>
          <path class="cls-2" d="M133.48397,452.09761c-2.31332,0-4.66476-.45526-6.92762-1.41737-9.01106-3.83049-13.21085-14.24061-9.38036-23.2513L232.8834,155.23146c3.83049-9.01106,14.24061-13.2101,23.2513-9.38036,9.01106,3.83049,13.21085,14.24061,9.38036,23.2513l-115.70741,272.19748c-2.86838,6.74783-9.42671,10.79773-16.32368,10.79773Z"></path>
        </g>
        <path class="cls-3" d="M249.1712,644.85284c-3.57781,0-7.15488-1.08022-10.21837-3.24066-6.06494-4.27753-12.14184-8.54608-18.21089-12.81016-49.43116-34.72332-100.54507-70.62854-139.72159-108.0584C25.7459,467.96378,0,419.28804,0,367.56188V102.64225c0-7.43633,4.64084-14.0825,11.62229-16.64401L243.06888,1.08461c3.94337-1.44615,8.27173-1.44615,12.21286,0l231.43837,84.91363c6.9807,2.56151,11.62229,9.20767,11.62229,16.64401V367.56188c0,51.72579-25.7459,100.40153-81.02408,153.18511-39.20867,37.46275-90.37603,73.40086-139.85765,108.15595-6.02308,4.23043-12.05363,8.46535-18.07222,12.70998-3.06312,2.16044-6.64056,3.23992-10.21725,3.23992ZM35.45743,115.02218v252.53969c0,41.37734,22.26004,81.90433,70.05367,127.54088,37.25082,35.59012,85.02875,69.15249,135.61227,104.68542,2.68186,1.88385,5.3656,3.76881,8.04858,5.65528,2.63664-1.8532,5.27365-3.70527,7.90879-5.55623,50.63585-35.56545,98.46386-69.15847,135.74683-104.78073,47.79737-45.64029,70.0574-86.16728,70.0574-127.54462V115.02181L249.17531,36.61268,35.45743,115.02218Z"></path>
      </g>
    </g>
  </g>
</svg>
